<svg viewBox="0 0 160 30" fill="none" xmlns="http://www.w3.org/2000/svg" role="img" aria-labelledby="title">
  <title id="title">Saha Robotik</title>
  <path d="M59.6061 13.3984C55.2013 12.6117 53.0917 12.018 53.0917 10.0215C53.0917 8.15859 54.9 7.05273 57.8365 7.05273C59.2396 7.00287 60.6388 7.22639 61.9496 7.70982C63.2604 8.19326 64.4558 8.92659 65.4636 9.86563L68.4001 7.54258C65.7418 4.9375 62.6044 3.75 58.1378 3.75C52.4117 3.75 48.6252 6.23633 48.6252 10.4297C48.6252 15.5359 53.4317 16.4859 58.4469 17.2727C62.9444 18.0148 65.1236 18.616 65.1236 20.8055C65.1236 22.9949 63.2844 24.2121 59.4361 24.2121C55.4177 24.2121 52.3808 22.7723 51.2139 19.8629L46.8169 20.709C48.2542 24.7168 51.6312 27.5 59.4052 27.5C66.4914 27.5 69.6288 24.5313 69.6288 20.3602C69.6288 15.1648 63.864 14.1406 59.5829 13.391" fill="#050505"/>
  <path d="M83.9691 3.75H79.3748L69.6287 27.5H74.3196L75.8659 23.5069H83.0324L81.7686 20.2012H77.1149L81.672 8.31463L85.7682 19.0118L87.0171 22.3175L88.9798 27.5H93.7079L83.9691 3.75Z" fill="#050505"/>
  <path d="M133.395 3.75H128.801L119.054 27.5H123.745L125.292 23.4451H132.458L131.202 20.1472H126.541L131.098 8.31463L135.194 19.0118L136.443 22.3175L138.406 27.5H143.134L133.395 3.75Z" fill="#050505"/>
  <path d="M113.436 3.75V13.2732H100.624V3.75H96.2427V27.5H100.624V17.2276H113.436V27.5H117.787V3.75H113.436Z" fill="#050505"/>
  <path d="M143.298 6.45456C143.301 6.81351 143.23 7.1693 143.09 7.50041C142.949 7.83151 142.743 8.13106 142.482 8.3809C142.221 8.63075 141.912 8.82571 141.573 8.954C141.234 9.08229 140.872 9.14124 140.509 9.12728C140.142 9.14916 139.774 9.09608 139.428 8.97135C139.082 8.84662 138.766 8.65291 138.499 8.40224C138.232 8.15158 138.02 7.84932 137.876 7.51426C137.733 7.1792 137.66 6.81849 137.664 6.45456C137.659 6.08906 137.731 5.72655 137.874 5.38944C138.016 5.05234 138.228 4.74779 138.495 4.49465C138.761 4.24151 139.078 4.04516 139.424 3.91772C139.771 3.79027 140.14 3.73445 140.509 3.75371C140.874 3.74231 141.237 3.80394 141.577 3.93492C141.916 4.06589 142.226 4.26348 142.486 4.51581C142.747 4.76814 142.953 5.06999 143.093 5.40318C143.232 5.73637 143.302 6.094 143.298 6.45456ZM142.795 6.45456C142.799 6.15925 142.742 5.86621 142.628 5.59328C142.514 5.32036 142.345 5.07326 142.131 4.86707C141.917 4.66088 141.663 4.49991 141.384 4.39395C141.105 4.28799 140.808 4.23926 140.509 4.25074C140.21 4.23795 139.911 4.28571 139.631 4.39108C139.351 4.49645 139.096 4.65723 138.881 4.86355C138.666 5.06988 138.496 5.31742 138.381 5.59099C138.267 5.86457 138.21 6.15842 138.214 6.45456C138.212 6.74873 138.271 7.04013 138.387 7.31102C138.503 7.58191 138.674 7.8266 138.888 8.03018C139.103 8.23375 139.358 8.39194 139.636 8.49511C139.915 8.59828 140.212 8.64426 140.509 8.63025C140.806 8.64295 141.102 8.596 141.379 8.49225C141.657 8.38849 141.91 8.23008 142.124 8.02664C142.337 7.8232 142.507 7.57896 142.623 7.30873C142.738 7.0385 142.797 6.7479 142.795 6.45456ZM141.05 6.60461L141.913 8.00192H141.306L140.528 6.66088H140.12V8.00192H139.589V4.88845H140.538C141.192 4.88845 141.619 5.24481 141.619 5.82624C141.619 6.00726 141.559 6.18337 141.45 6.3286C141.341 6.47382 141.187 6.58045 141.012 6.63275M140.566 6.26701C140.889 6.26701 141.078 6.0982 141.078 5.82624C141.078 5.55428 140.889 5.39485 140.557 5.39485H140.082V6.26701H140.566Z" fill="#050505"/>
  <path d="M16.0378 28.9958C16.0644 28.8443 16.1411 28.7057 16.256 28.602L25.3525 20.6401L21.1599 16.9827L19.4241 15.4728L16.2465 12.6595C16.1309 12.5471 16.0602 12.3973 16.0473 12.2375C16.0435 12.1813 16.051 12.1249 16.0696 12.0716C16.0881 12.0184 16.1172 11.9693 16.1553 11.9274C16.1933 11.8854 16.2394 11.8514 16.2909 11.8274C16.3424 11.8033 16.3983 11.7897 16.4552 11.7873H21.3402C21.501 11.7927 21.6593 11.8295 21.8058 11.8955C21.9522 11.9615 22.0841 12.0554 22.1938 12.1718L22.4689 12.4344L30.3608 19.3928L30.6928 19.7023C30.7652 19.7829 30.8288 19.8709 30.8825 19.9649C31.0015 20.1532 31.064 20.3711 31.0627 20.5932C31.0478 20.8456 30.9741 21.0912 30.8474 21.3108C30.7208 21.5304 30.5445 21.7181 30.3323 21.8592L22.1464 29.0615C22.0385 29.1809 21.9072 29.2774 21.7605 29.3451C21.6137 29.4128 21.4546 29.4503 21.2927 29.4553H16.4078C16.327 29.4517 16.2491 29.4249 16.1834 29.3783C16.1177 29.3317 16.0671 29.2673 16.0378 29.1928C16.0271 29.1402 16.0271 29.086 16.0378 29.0333M38.1483 18.5113H33.4056C32.9416 18.455 32.5088 18.2509 32.1725 17.9299L24.2806 10.9621C23.9614 10.7216 23.718 10.3964 23.5787 10.0243C23.545 9.9117 23.529 9.79468 23.5313 9.67729C23.5497 9.42616 23.627 9.18272 23.7571 8.96624C23.8872 8.74975 24.0664 8.56618 24.2806 8.43003L32.4381 1.22778C32.6008 1.06218 32.803 0.939637 33.0262 0.871419C33.095 0.856988 33.166 0.856988 33.2348 0.871419H38.2336C38.3128 0.910944 38.3794 0.971214 38.4262 1.04564C38.4731 1.12006 38.4983 1.20577 38.4992 1.29342C38.4949 1.37497 38.4732 1.45469 38.4356 1.5274C38.398 1.60011 38.3454 1.66417 38.2811 1.71543L29.1941 9.66792L35.1319 14.882L38.2431 17.6016C38.3083 17.6521 38.3617 17.7159 38.3993 17.7888C38.437 17.8617 38.4582 17.9419 38.4613 18.0236C38.4639 18.0806 38.4547 18.1375 38.4344 18.1909C38.4141 18.2443 38.3831 18.2931C38.3432 18.3343C38.3033 18.3754 38.2554 18.4082 38.2023 18.4306C38.1492 18.453 38.0921 18.4645 38.0344 18.4644" fill="#00AFDE"/>
</svg>
